<svg width="150" height="166" viewBox="0 0 150 166" fill="none" xmlns="http://www.w3.org/2000/svg">
<path d="M149.493 165.465H39.2931V130.258H109.803C126.351 131.802 136.38 138.104 142.213 145.299C147.888 152.298 149.625 160.182 149.493 165.465Z" fill="#006BB4" stroke="#006BB4"/>
<path d="M106.533 80.5764L106.532 80.5657L106.53 80.5551C103.406 56.6005 91.6703 43.2082 78.0835 35.8269C64.7032 28.5578 49.5682 27.1388 39.1998 27.1032C37.8056 20.6656 33.9322 14.5957 29.4604 9.80443C25.75 5.82902 21.5895 2.69341 18.0212 0.947348H38.7931V0.947396L38.8 0.947299C75.9048 0.431956 99.0314 13.6308 112.892 30.2823C126.769 46.9548 131.397 67.1368 131.397 80.6198V80.6311L131.397 80.6425C132.415 103.029 123.441 120.539 118.721 126.671H86.8493C104.586 112.967 107.383 90.3614 106.533 80.5764Z" fill="#017D73" stroke="#017D73"/>
<path d="M0.5 0.952717C6.23116 1.05366 14.6303 2.89011 21.7857 8.09402C29.1281 13.434 35.193 22.3409 35.7069 36.6641V165.461C29.9757 165.36 21.5766 163.524 14.4212 158.32C7.0788 152.98 1.01392 144.073 0.5 129.75V0.952717Z" fill="#F5A700" stroke="#F5A700"/>
</svg>
